Coordinates
version=1
nRows=4
nColumns=114
inDegrees=yes

Units are S.I. units (second, meters, Newtons, ...)
If the header above contains a line with 'inDegrees', this indicates whether rotational values are in degrees (yes) or radians (no).

endheader 
time	pelvis_tilt	pelvis_list	pelvis_rotation	pelvis_tx	pelvis_ty	pelvis_tz	hip_flexion_l	hip_adduction_l	hip_rotation_l	hip_flexion_r	hip_adduction_r	hip_rotation_r	knee_angle_l	knee_angle_r	ankle_angle_l	ankle_angle_r	subtalar_angle_l	subtalar_angle_r	mtp_angle_l	mtp_angle_r	lumbar_extension	lumbar_bending	lumbar_rotation	arm_flex_l	arm_add_l	arm_rot_l	arm_flex_r	arm_add_r	arm_rot_r	elbow_flex_l	elbow_flex_r	pro_sup_l	pro_sup_r	addbrev_l/activation	addlong_l/activation	addmagDist_l/activation	addmagIsch_l/activation	addmagMid_l/activation	addmagProx_l/activation	bflh_l/activation	bfsh_l/activation	edl_l/activation	ehl_l/activation	fdl_l/activation	fhl_l/activation	gaslat_l/activation	gasmed_l/activation	glmax1_l/activation	glmax2_l/activation	glmax3_l/activation	glmed1_l/activation	glmed2_l/activation	glmed3_l/activation	glmin1_l/activation	glmin2_l/activation	glmin3_l/activation	grac_l/activation	iliacus_l/activation	perbrev_l/activation	perlong_l/activation	piri_l/activation	psoas_l/activation	recfem_l/activation	sart_l/activation	semimem_l/activation	semiten_l/activation	soleus_l/activation	tfl_l/activation	tibant_l/activation	tibpost_l/activation	vasint_l/activation	vaslat_l/activation	vasmed_l/activation	addbrev_r/activation	addlong_r/activation	addmagDist_r/activation	addmagIsch_r/activation	addmagMid_r/activation	addmagProx_r/activation	bflh_r/activation	bfsh_r/activation	edl_r/activation	ehl_r/activation	fdl_r/activation	fhl_r/activation	gaslat_r/activation	gasmed_r/activation	glmax1_r/activation	glmax2_r/activation	glmax3_r/activation	glmed1_r/activation	glmed2_r/activation	glmed3_r/activation	glmin1_r/activation	glmin2_r/activation	glmin3_r/activation	grac_r/activation	iliacus_r/activation	perbrev_r/activation	perlong_r/activation	piri_r/activation	psoas_r/activation	recfem_r/activation	sart_r/activation	semimem_r/activation	semiten_r/activation	soleus_r/activation	tfl_r/activation	tibant_r/activation	tibpost_r/activation	vasint_r/activation	vaslat_r/activation	vasmed_r/activation	
          1.52000000	         10.40422692	         10.35449154	        -29.41898493	          1.09508525	          0.95627225	          0.35426819	         42.85962282	         -6.69100377	         -7.40366784	         -5.61589971	        -10.26684872	        -15.76316345	         95.55788527	          6.93653252	         26.77433397	          5.46185607	        -14.38538513	         -6.39764444	         -0.46937759	        -14.03246942	        -19.34354786	        -14.44703800	          0.12022849	          5.19398266	        -19.02935949	         19.59516726	          5.88824181	        -12.15894421	         14.60370276	         28.17021970	         27.59994857	         65.94740837	         65.21100644	          0.01194870	          0.01172296	          0.01100798	          0.01109836	          0.01119780	          0.01329517	          0.01094354	          0.10877288	          0.07470402	          0.05882957	          0.01655996	          0.01683163	          0.04657092	          0.04378343	          0.01702998	          0.01393057	          0.01110017	          0.01325673	          0.01920064	          0.02547676	          0.01527411	          0.02618736	          0.03767582	          0.01909612	          0.14962989	          0.05065586	          0.07313615	          0.12105883	          0.17356791	          0.17793497	          0.19053298	          0.02238629	          0.01600870	          0.03150156	          0.07575567	          0.13368842	          0.01337696	          0.02364600	          0.02883408	          0.02550461	          0.01036086	          0.01025903	          0.01023533	          0.01027185	          0.01022931	          0.01039383	          0.01033460	          0.09825220	          0.01116390	          0.02158364	          0.05801413	          0.09205578	          0.22913540	          0.31697334	          0.02620398	          0.01174942	          0.01017349	          0.56373479	          0.25795920	          0.09970273	          0.23976018	          0.18326189	          0.05868104	          0.01093663	          0.09759303	          0.01056353	          0.01025148	          0.02487125	          0.01600558	          0.04860064	          0.10758876	          0.01127145	          0.01121861	          0.13830257	          0.24176218	          0.11684581	          0.17139280	          0.01019774	          0.01006667	          0.01013893	
          1.53000000	         10.63311563	         10.62090235	        -29.07551527	          1.09327257	          0.95791238	          0.35463227	         44.64230944	         -6.47604053	         -7.42936373	         -5.55488202	        -10.58873406	        -15.99046174	         98.12701240	          7.16707981	         26.29920407	          4.85042735	        -14.66556332	         -6.50624578	         -0.40884972	        -14.69484398	        -19.86235353	        -14.93244420	         -0.55551057	          5.26043176	        -19.29821523	         19.66615873	          6.48906732	        -11.96254573	         14.54543248	         28.18154306	         27.51477880	         65.97899626	         65.35554341	          0.01456857	          0.01394719	          0.01705193	          0.01749852	          0.01576804	          0.01520978	          0.01089517	          0.09073602	          0.06243442	          0.04922649	          0.01826769	          0.01914073	          0.03911318	          0.03671824	          0.04419245	          0.04802580	          0.01776548	          0.01336482	          0.02908066	          0.06135812	          0.01511458	          0.02253943	          0.03201669	          0.01614157	          0.12477031	          0.04283583	          0.07740986	          0.10354381	          0.14470075	          0.18148438	          0.15884118	          0.01869473	          0.01357436	          0.03164156	          0.06337192	          0.11147670	          0.01623039	          0.02571080	          0.02575074	          0.02744218	          0.01039445	          0.01028290	          0.01030812	          0.01048163	          0.01026678	          0.01035723	          0.01035764	          0.08232184	          0.01164076	          0.01895013	          0.04911131	          0.07725111	          0.19127634	          0.26472866	          0.02227058	          0.01986611	          0.01020325	          0.65844287	          0.21702052	          0.08312230	          0.28325501	          0.15420625	          0.04900198	          0.01086167	          0.08369831	          0.01187951	          0.01167312	          0.02116888	          0.01379656	          0.04056692	          0.08991299	          0.05332668	          0.01207040	          0.11542859	          0.24256610	          0.09749104	          0.14383941	          0.01033893	          0.01011416	          0.01023579	
          1.54000000	         10.86102307	         10.81860946	        -28.72764349	          1.09149647	          0.95955523	          0.35496166	         46.35075121	         -6.29851775	         -7.43016920	         -5.54372603	        -10.84409803	        -16.05742235	        100.41257967	          7.40723434	         25.69007507	          4.38617710	        -14.98614244	         -6.67363953	         -0.36220932	        -15.13889013	        -20.42237682	        -15.32775163	         -1.25806048	          5.24702457	        -19.57643488	         19.66022220	          7.10420331	        -11.74971423	         14.47361783	         28.25268265	         27.38152594	         66.06004493	         65.56269274	          0.01251058	          0.01207329	          0.01429172	          0.01466749	          0.01325709	          0.01310361	          0.01078669	          0.07607151	          0.07532751	          0.06048761	          0.01600341	          0.01615949	          0.06206646	          0.05861802	          0.03701420	          0.04010016	          0.01486226	          0.02237379	          0.03584521	          0.05307496	          0.02041074	          0.03687969	          0.05990368	          0.01393223	          0.10447079	          0.06374437	          0.08538668	          0.14188207	          0.12086438	          0.20526772	          0.13262188	          0.01564422	          0.01203609	          0.02639066	          0.07989129	          0.12696403	          0.01379023	          0.02146216	          0.02147166	          0.02289346	          0.01044161	          0.01031839	          0.01044563	          0.01165203	          0.01032001	          0.01032891	          0.01054315	          0.06901431	          0.01298268	          0.01839378	          0.04209902	          0.06505035	          0.15962229	          0.22097943	          0.01895240	          0.02170283	          0.01023976	          0.77543161	          0.18260979	          0.06930009	          0.30941894	          0.12955527	          0.04092098	          0.01085967	          0.07110886	          0.01297075	          0.01182461	          0.01803838	          0.01202655	          0.03384030	          0.07514460	          0.06360320	          0.01995105	          0.09628976	          0.25414294	          0.08453661	          0.12651776	          0.01046541	          0.01015083	          0.01031717	
          1.55000000	         11.09654500	         10.96471694	        -28.39380220	          1.08984034	          0.96108284	          0.35533815	         47.95915452	         -6.16313606	         -7.42911747	         -5.60621527	        -11.04070972	        -15.90639023	        102.43484947	          7.61611901	         24.88842881	          4.10276692	        -15.38407755	         -6.93358621	         -0.32540811	        -15.32139235	        -20.98782246	        -15.65588998	         -1.98107009	          5.14241951	        -19.86521356	         19.56991249	          7.73646570	        -11.49926825	         14.43373832	         28.36058621	         27.11296254	         66.15153037	         65.86676091	          0.01085643	          0.01066893	          0.01198745	          0.01229998	          0.01116966	          0.01137309	          0.01072645	          0.11106746	          0.08454306	          0.05997000	          0.01454603	          0.01374224	          0.05213184	          0.08057649	          0.03098199	          0.03347579	          0.01243678	          0.01886940	          0.03029605	          0.04482346	          0.01775524	          0.03190793	          0.05244904	          0.01243650	          0.10465560	          0.06659905	          0.08269454	          0.16588902	          0.10147617	          0.24615002	          0.16414727	          0.01312355	          0.01153198	          0.02201543	          0.09133127	          0.12851531	          0.01185700	          0.01791488	          0.01790343	          0.01909832	          0.01043844	          0.01030956	          0.01070551	          0.01535141	          0.01036071	          0.01027816	          0.01066439	          0.05793384	          0.01455757	          0.02300042	          0.03733369	          0.05578275	          0.13358683	          0.19708875	          0.01611521	          0.01845461	          0.01028272	          0.89191838	          0.15597734	          0.05778055	          0.38675075	          0.10919274	          0.03418576	          0.01074383	          0.06030578	          0.01235214	          0.01115542	          0.01547194	          0.01091644	          0.02861068	          0.06287706	          0.05307038	          0.01720876	          0.08039397	          0.27614745	          0.07291625	          0.11691371	          0.01146517	          0.01048488	          0.01102156	
